Coordinates
version=1
nRows=21
nColumns=38
inDegrees=no

Units are S.I. units (second, meters, Newtons, ...)
If the header above contains a line with 'inDegrees', this indicates whether rotational values are in degrees (yes) or radians (no).

endheader
time	pelvis_tilt	pelvis_list	pelvis_rotation	pelvis_tx	pelvis_ty	pelvis_tz	hip_flexion_r	hip_adduction_r	hip_rotation_r	knee_angle_r	ankle_angle_r	subtalar_angle_r	mtp_angle_r	hip_flexion_l	hip_adduction_l	hip_rotation_l	knee_angle_l	ankle_angle_l	subtalar_angle_l	mtp_angle_l	lumbar_extension	lumbar_bending	lumbar_rotation	arm_flex_r	arm_add_r	arm_rot_r	elbow_flex_r	pro_sup_r	wrist_flex_r	wrist_dev_r	arm_flex_l	arm_add_l	arm_rot_l	elbow_flex_l	pro_sup_l	wrist_flex_l	wrist_dev_l
2.80833	0.14465	-0.164896	-0.122304	0.908221	1.01514	-0.327045	0.0518184	0.26582	0.018981	-0.800845	0.463452	0.0529922	6.43763e-05	0.25867	-0.225614	-0.140903	-1.6805	0.00671216	0.0618433	4.41804e-05	-0.514708	0.140065	0.100563	0.0130459	-0.490414	0.00808891	1.84924	2.30035	0.00752624	-0.0191875	-0.298582	-0.283128	0.178063	1.90614	1.85526	0.00775153	-0.00801938
2.81667	0.136578	-0.152475	-0.131475	0.907796	1.01806	-0.325946	0.0178459	0.250215	0.0382167	-0.772009	0.460272	0.0529922	6.43763e-05	0.301126	-0.219768	-0.146362	-1.65923	0.0161133	0.0618433	4.41804e-05	-0.50286	0.121768	0.119222	0.0318826	-0.486469	0.00936961	1.88496	2.27489	0.00752624	-0.0191875	-0.319651	-0.287046	0.173632	1.92683	1.87631	0.00775153	-0.00801938
2.825	0.128016	-0.138131	-0.140251	0.907758	1.02144	-0.324876	-0.0163833	0.231574	0.0556906	-0.739322	0.450584	0.0529922	6.43763e-05	0.34072	-0.212771	-0.155645	-1.6298	0.0250988	0.0618433	4.41804e-05	-0.489178	0.10186	0.13628	0.0475508	-0.482129	0.0105946	1.92263	2.24936	0.00752624	-0.0191875	-0.342548	-0.290752	0.167022	1.94945	1.89779	0.00775153	-0.00801938
2.83333	0.119211	-0.122174	-0.147958	0.908104	1.02524	-0.32391	-0.0506612	0.210175	0.0700413	-0.703159	0.433431	0.0529922	6.43763e-05	0.377063	-0.204448	-0.168033	-1.59237	0.0331123	0.0618433	4.41804e-05	-0.474075	0.0809242	0.151195	0.0603878	-0.477486	0.0121428	1.9614	2.22491	0.00752624	-0.0191875	-0.366832	-0.293944	0.158461	1.97252	1.91801	0.00775153	-0.00801938
2.84167	0.1104	-0.104932	-0.154028	0.90882	1.02939	-0.323116	-0.0848051	0.18642	0.0800713	-0.664008	0.407952	0.0529922	6.43763e-05	0.409781	-0.194488	-0.182603	-1.54708	0.0396147	0.0618433	4.41804e-05	-0.458018	0.0594935	0.163499	0.0707332	-0.472638	0.0143716	2.00057	2.20235	0.00752624	-0.0191875	-0.392143	-0.296363	0.148245	1.99487	1.93557	0.00775153	-0.00801938
2.85	0.101817	-0.0867651	-0.158043	0.909885	1.03384	-0.322545	-0.118679	0.160839	0.0848504	-0.622459	0.373481	0.0529922	6.43763e-05	0.438493	-0.182501	-0.198233	-1.49402	0.0442052	0.0618433	4.41804e-05	-0.441513	0.0380414	0.172856	0.078904	-0.467689	0.0175895	2.03962	2.18216	0.00752624	-0.0191875	-0.418188	-0.297812	0.136714	2.01571	1.94953	0.00775153	-0.00801938
2.85833	0.0936798	-0.0680776	-0.159776	0.911273	1.03853	-0.322232	-0.152183	0.134096	0.0837967	-0.57921	0.329647	0.0529922	6.43763e-05	0.462814	-0.168124	-0.213624	-1.4333	0.0467145	0.0618433	4.41804e-05	-0.425064	0.0169959	0.179117	0.0851679	-0.462737	0.0220323	2.07816	2.16453	0.00752624	-0.0191875	-0.44471	-0.298166	0.124232	2.03455	1.95934	0.00775153	-0.00801938
2.86667	0.0861697	-0.0493525	-0.159203	0.912948	1.04337	-0.32219	-0.185217	0.106992	0.0767282	-0.535088	0.276485	0.0529922	6.43763e-05	0.482394	-0.151155	-0.227345	-1.36505	0.0472562	0.0618433	4.41804e-05	-0.409132	-0.00322749	0.182353	0.089724	-0.457869	0.027847	2.11595	2.14939	0.00752624	-0.0191875	-0.471465	-0.297387	0.11118	2.05118	1.96477	0.00775153	-0.00801938
2.875	0.0793989	-0.0311737	-0.156483	0.91487	1.0483	-0.322408	-0.217611	0.0804637	0.0638773	-0.491084	0.214573	0.0529922	6.43763e-05	0.49698	-0.131674	-0.237908	-1.28956	0.0462312	0.0618433	4.41804e-05	-0.394086	-0.0221808	0.182867	0.0926963	-0.453159	0.0350856	2.15283	2.1366	0.00752624	-0.0191875	-0.498189	-0.295526	0.097935	2.06559	1.96582	0.00775153	-0.00801938
2.88333	0.0733955	-0.0142196	-0.151913	0.916991	1.0532	-0.322853	-0.249081	0.055543	0.0458717	-0.448372	0.145154	0.0529922	6.43763e-05	0.506476	-0.110116	-0.243887	-1.2073	0.0442866	0.0618433	4.41804e-05	-0.380178	-0.0393541	0.181148	0.0941427	-0.448677	0.0437085	2.18869	2.12597	0.00752624	-0.0191875	-0.52459	-0.292707	0.0848483	2.0779	1.96263	0.00775153	-0.00801938
2.89167	0.0681085	0.000777841	-0.14587	0.919258	1.05798	-0.323477	-0.279217	0.0332798	0.0236847	-0.408301	0.0702201	0.0529922	6.43763e-05	0.510993	-0.0872771	-0.244074	-1.1191	0.0422344	0.0618433	4.41804e-05	-0.367537	-0.0541819	0.177802	0.0940752	-0.444493	0.0535969	2.22343	2.11736	0.00752624	-0.0191875	-0.550341	-0.289115	0.0722295	2.08835	1.95542	0.00775153	-0.00801938
2.9	0.0634331	0.0131071	-0.138742	0.92161	1.06251	-0.324223	-0.307505	0.0146316	-0.00143242	-0.372351	-0.00747863	0.0529922	6.43763e-05	0.510861	-0.0642273	-0.237672	-1.02614	0.0409454	0.0618433	4.41804e-05	-0.356193	-0.0660994	0.173456	0.0924827	-0.440687	0.0645701	2.25694	2.1106	0.00752624	-0.0191875	-0.575072	-0.284973	0.0603361	2.09722	1.94453	0.00775153	-0.00801938
2.90833	0.0592481	0.0221825	-0.130891	0.923982	1.06667	-0.325036	-0.333374	0.000334018	-0.0280377	-0.342064	-0.0845498	0.0529922	6.43763e-05	0.506619	-0.0421703	-0.224483	-0.930007	0.0412321	0.0618433	4.41804e-05	-0.346114	-0.0746393	0.168681	0.0893506	-0.437338	0.0764001	2.289	2.10555	0.00752624	-0.0191875	-0.598377	-0.280534	0.049374	2.10483	1.93045	0.00775153	-0.00801938
2.91667	0.0554537	0.0276556	-0.122629	0.92631	1.07036	-0.32587	-0.356258	-0.00921477	-0.0546091	-0.318973	-0.157219	0.0529922	6.43763e-05	0.498974	-0.0222648	-0.205055	-0.832701	0.043741	0.0618433	4.41804e-05	-0.337238	-0.079539	0.163923	0.0846712	-0.434516	0.0888238	2.31933	2.10203	0.00752624	-0.0191875	-0.619819	-0.276063	0.0394994	2.11146	1.91388	0.00775153	-0.00801938
2.925	0.0520014	0.0294978	-0.114206	0.92854	1.07348	-0.326683	-0.375633	-0.0140285	-0.0796849	-0.304521	-0.221731	0.0529922	6.43763e-05	0.488753	-0.00544587	-0.180726	-0.736537	0.0488616	0.0618433	4.41804e-05	-0.329511	-0.0808243	0.159455	0.0784466	-0.432261	0.101546	2.34755	2.09988	0.00752624	-0.0191875	-0.638956	-0.271836	0.0308199	2.11738	1.89581	0.00775153	-0.00801938
2.93333	0.0489081	0.0280242	-0.105803	0.93063	1.07596	-0.32745	-0.391062	-0.0145414	-0.102024	-0.29998	-0.274826	0.0529922	6.43763e-05	0.476837	0.00771803	-0.153518	-0.644036	0.0566537	0.0618433	4.41804e-05	-0.322906	-0.0788399	0.155367	0.0706845	-0.430566	0.114238	2.37318	2.09893	0.00752624	-0.0191875	-0.655359	-0.268129	0.023394	2.1228	1.87737	0.00775153	-0.00801938
2.94167	0.0462571	0.0238583	-0.0975255	0.93255	1.07777	-0.328154	-0.402198	-0.0115554	-0.120756	-0.306375	-0.314197	0.0529922	6.43763e-05	0.464085	0.0170987	-0.125923	-0.557747	0.0667961	0.0618433	4.41804e-05	-0.317431	-0.0742201	0.151568	0.0613917	-0.429376	0.126536	2.39572	2.09898	0.00752624	-0.0191875	-0.668644	-0.265203	0.0172307	2.12786	1.85978	0.00775153	-0.00801938
2.95	0.0441857	0.0178315	-0.0894009	0.934285	1.0789	-0.328789	-0.408818	-0.00613008	-0.135503	-0.3244	-0.338819	0.0529922	6.43763e-05	0.451252	0.0230072	-0.100553	-0.480042	0.0785578	0.0618433	4.41804e-05	-0.313135	-0.067802	0.147824	0.0505688	-0.428585	0.138045	2.41469	2.09983	0.00752624	-0.0191875	-0.678491	-0.263301	0.0122996	2.13263	1.84408	0.00775153	-0.00801938
2.95833	0.0428472	0.0108715	-0.0813776	0.935825	1.07936	-0.329362	-0.410848	0.000561653	-0.14642	-0.354327	-0.349077	0.0529922	6.43763e-05	0.438918	0.0261158	-0.079757	-0.412919	0.0908128	0.0618433	4.41804e-05	-0.310107	-0.0605001	0.143794	0.0382099	-0.428055	0.14835	2.42966	2.10123	0.00752624	-0.0191875	-0.684656	-0.262633	0.00854455	2.13715	1.831	0.00775153	-0.00801938
2.96667	0.0423989	0.00389595	-0.0733416	0.937167	1.07918	-0.329896	-0.408381	0.00736962	-0.154146	-0.395952	-0.346644	0.0529922	6.43763e-05	0.427448	0.0273214	-0.0652882	-0.357865	0.102126	0.0618433	4.41804e-05	-0.308464	-0.053184	0.139097	0.0243122	-0.427624	0.157038	2.44031	2.10292	0.00752624	-0.0191875	-0.686988	-0.263373	0.00589663	2.14142	1.82087	0.00775153	-0.00801938
2.975	0.0429807	-0.00229609	-0.065149	0.938311	1.07839	-0.330418	-0.401679	0.0132664	-0.159652	-0.448582	-0.334147	0.0529922	6.43763e-05	0.417016	0.0275951	-0.0580909	-0.315812	0.110931	0.0618433	4.41804e-05	-0.308325	-0.0465995	0.133365	0.00889552	-0.427127	0.163739	2.44648	2.10457	0.00752624	-0.0191875	-0.685434	-0.265661	0.0042794	2.14543	1.81365	0.00775153	-0.00801938
